<svg xmlns="http://www.w3.org/2000/svg" xmlns:xlink="http://www.w3.org/1999/xlink" width="500" zoomAndPan="magnify" viewBox="0 0 375 374.999991" height="500" preserveAspectRatio="xMidYMid meet" version="1.0"><defs><clipPath id="5c0e0bf676"><path d="M 17.480469 20.050781 L 357.230469 20.050781 L 357.230469 345.550781 L 17.480469 345.550781 Z M 17.480469 20.050781 " clip-rule="nonzero"/></clipPath><clipPath id="da8bc7afad"><path d="M 107.382812 37.722656 C 114.957031 37.722656 121.097656 43.863281 121.097656 51.441406 C 121.097656 59.015625 114.957031 65.15625 107.382812 65.15625 C 99.808594 65.15625 93.667969 59.015625 93.667969 51.441406 C 93.667969 43.863281 99.808594 37.722656 107.382812 37.722656 Z M 117.75 105.988281 C 124.382812 105.988281 129.761719 111.367188 129.761719 118 C 129.761719 124.636719 124.382812 130.011719 117.75 130.011719 C 111.117188 130.011719 105.738281 124.636719 105.738281 118 C 105.738281 111.367188 111.117188 105.988281 117.75 105.988281 Z M 35.472656 81.429688 C 45.410156 81.429688 53.464844 89.488281 53.464844 99.425781 C 53.464844 109.363281 45.410156 117.425781 35.472656 117.425781 C 25.53125 117.425781 17.480469 109.363281 17.480469 99.425781 C 17.480469 89.488281 25.53125 81.429688 35.472656 81.429688 Z M 165.574219 222.722656 C 158.882812 222.722656 153.453125 228.148438 153.453125 234.847656 C 153.453125 241.542969 158.882812 246.972656 165.574219 246.972656 C 172.273438 246.972656 177.703125 241.542969 177.703125 234.847656 C 177.703125 228.148438 172.273438 222.722656 165.574219 222.722656 Z M 93.402344 174.988281 C 102.875 174.988281 110.550781 182.667969 110.550781 192.140625 C 110.550781 201.613281 102.875 209.292969 93.402344 209.292969 C 83.929688 209.292969 76.253906 201.613281 76.253906 192.140625 C 76.253906 182.667969 83.929688 174.988281 93.402344 174.988281 Z M 263.945312 78.109375 C 258.765625 79.488281 253.191406 81.425781 247.417969 83.878906 C 247.757812 85.226562 247.9375 86.632812 247.9375 88.082031 C 247.9375 88.621094 247.914062 89.15625 247.863281 89.683594 C 248.394531 89.878906 248.917969 90.074219 249.441406 90.273438 C 251.308594 90.980469 253.152344 91.722656 254.972656 92.492188 C 277.140625 101.863281 295.695312 115.617188 308.207031 131.203125 C 306.292969 123.4375 303.363281 115.917969 299.511719 108.738281 C 294.324219 99.058594 287.457031 89.992188 279.171875 81.769531 C 277.480469 82.820312 275.496094 83.429688 273.363281 83.429688 C 269.371094 83.429688 265.871094 81.296875 263.945312 78.109375 Z M 202.886719 41.515625 C 212.015625 49.539062 220.113281 59.644531 226.902344 71.371094 C 228.152344 71.082031 229.453125 70.929688 230.789062 70.929688 C 236.285156 70.929688 241.175781 73.511719 244.3125 77.535156 C 250.632812 74.832031 256.746094 72.707031 262.4375 71.207031 C 262.550781 70.167969 262.8125 69.175781 263.191406 68.246094 C 261.328125 66.894531 259.417969 65.582031 257.464844 64.304688 C 242.066406 54.234375 223.972656 46.464844 203.992188 41.769531 Z M 216.398438 232.175781 C 219.207031 227.539062 221.851562 222.800781 224.296875 217.992188 C 225.40625 215.800781 226.476562 213.601562 227.503906 211.386719 C 232.785156 199.980469 236.878906 188.269531 239.371094 176.636719 C 233.550781 174.015625 229.5 168.167969 229.5 161.371094 C 229.5 153.628906 234.753906 147.113281 241.894531 145.207031 C 241.816406 144.066406 241.71875 142.933594 241.597656 141.804688 C 240.625 132.636719 239.039062 123.777344 236.894531 115.320312 C 236.699219 114.546875 236.5 113.777344 236.296875 113.011719 C 235.566406 110.277344 234.777344 107.585938 233.933594 104.945312 C 232.910156 105.132812 231.863281 105.230469 230.789062 105.230469 C 225.890625 105.230469 221.476562 103.179688 218.351562 99.886719 C 217.636719 100.375 216.929688 100.867188 216.214844 101.367188 C 215.308594 102.007812 214.402344 102.660156 213.503906 103.320312 C 201.800781 111.910156 190.789062 122.269531 181.992188 134.078125 C 185.066406 137.132812 186.976562 141.363281 186.976562 146.039062 C 186.976562 152.625 183.191406 158.328125 177.683594 161.097656 L 177.738281 161.273438 C 185.152344 184.101562 199.234375 209.5625 216.398438 232.175781 Z M 297.917969 199.644531 C 298.761719 198.292969 299.582031 196.925781 300.390625 195.550781 C 305.523438 185.117188 308.675781 174.695312 310.035156 164.464844 C 310.574219 160.367188 310.832031 156.296875 310.816406 152.261719 C 310.808594 150.625 310.757812 148.996094 310.660156 147.375 C 309.976562 146.148438 309.25 144.929688 308.484375 143.714844 C 297.152344 125.757812 277.136719 109.519531 252.230469 98.992188 C 250.117188 98.097656 247.957031 97.246094 245.769531 96.433594 C 244.476562 98.75 242.660156 100.734375 240.484375 102.226562 C 241.976562 106.847656 243.304688 111.605469 244.457031 116.484375 C 245.679688 121.667969 246.703125 126.984375 247.519531 132.417969 C 247.949219 135.265625 248.316406 138.144531 248.628906 141.058594 C 248.757812 142.320312 248.867188 143.589844 248.957031 144.863281 C 256.894531 146.167969 262.953125 153.058594 262.953125 161.371094 C 262.953125 163.839844 262.421875 166.1875 261.460938 168.296875 C 267.027344 173.078125 272.578125 178.625 278.03125 184.78125 C 280.675781 187.773438 283.304688 190.90625 285.894531 194.164062 C 287.351562 196 288.796875 197.871094 290.230469 199.773438 C 291.496094 199.339844 292.855469 199.097656 294.277344 199.097656 C 295.542969 199.097656 296.765625 199.289062 297.917969 199.644531 Z M 228.214844 257.289062 C 226.484375 255.421875 224.777344 253.519531 223.085938 251.582031 C 221.175781 249.390625 219.285156 247.15625 217.425781 244.878906 L 217.007812 244.363281 C 216.371094 245.316406 215.730469 246.261719 215.082031 247.203125 C 204.917969 261.976562 193.226562 275.414062 181.097656 286.523438 C 196.210938 282.582031 212.007812 276.027344 227.355469 267.121094 C 226.929688 265.882812 226.695312 264.550781 226.695312 263.164062 C 226.695312 261.03125 227.246094 259.03125 228.214844 257.289062 Z M 284.488281 203.910156 C 280.730469 198.914062 276.890625 194.175781 273.003906 189.761719 C 267.800781 183.859375 262.511719 178.535156 257.234375 173.96875 C 254.304688 176.53125 250.476562 178.085938 246.28125 178.101562 C 243.460938 191.246094 238.71875 204.433594 232.582031 217.175781 C 231.941406 218.511719 231.277344 219.84375 230.605469 221.171875 C 227.675781 226.941406 224.46875 232.601562 221.03125 238.117188 C 221.507812 238.710938 221.980469 239.296875 222.460938 239.882812 C 224.410156 242.277344 226.390625 244.628906 228.398438 246.933594 C 230.011719 248.78125 231.640625 250.59375 233.28125 252.375 C 234.941406 251.523438 236.820312 251.039062 238.820312 251.039062 C 241.964844 251.039062 244.839844 252.242188 246.992188 254.210938 C 250.617188 251.527344 254.183594 248.710938 257.679688 245.757812 C 261.753906 242.316406 265.734375 238.695312 269.585938 234.902344 C 274.734375 229.820312 279.65625 224.425781 284.28125 218.734375 C 282.792969 216.691406 281.914062 214.179688 281.914062 211.460938 C 281.914062 208.617188 282.875 205.996094 284.488281 203.910156 Z M 273.863281 294.066406 C 264.222656 289.042969 254.445312 282.042969 244.910156 273.648438 C 243.121094 274.691406 241.039062 275.289062 238.820312 275.289062 C 236.082031 275.289062 233.554688 274.382812 231.527344 272.851562 C 215.226562 282.378906 198.402344 289.355469 182.320312 293.496094 C 182.277344 294.421875 182.148438 295.320312 181.9375 296.1875 L 230.011719 321.785156 C 230.152344 321.632812 230.289062 321.484375 230.433594 321.34375 L 230.445312 321.328125 C 233.007812 318.769531 236.542969 317.183594 240.4375 317.183594 C 241.167969 317.183594 241.890625 317.242188 242.597656 317.347656 C 251.457031 302.035156 264.828125 296.246094 273.867188 294.066406 Z M 323.914062 273.691406 C 321.902344 268.773438 319.730469 263.835938 317.410156 258.914062 C 312.601562 248.714844 307.175781 238.59375 301.320312 228.902344 C 300.179688 227.019531 299.023438 225.148438 297.851562 223.300781 C 296.71875 223.640625 295.519531 223.824219 294.277344 223.824219 C 292.734375 223.824219 291.257812 223.539062 289.894531 223.027344 C 285.070312 228.984375 279.925781 234.625 274.535156 239.941406 C 270.59375 243.828125 266.523438 247.539062 262.339844 251.070312 C 258.507812 254.304688 254.589844 257.390625 250.605469 260.3125 C 250.824219 261.230469 250.941406 262.183594 250.941406 263.164062 C 250.941406 265.082031 250.496094 266.890625 249.707031 268.503906 C 261.40625 278.816406 273.386719 286.863281 284.84375 291.429688 C 290.503906 293.6875 296.042969 295.09375 301.351562 295.503906 C 302.074219 295.558594 302.792969 295.601562 303.507812 295.617188 C 306.746094 295.460938 310.429688 294.957031 314.683594 293.9375 C 324.421875 291.613281 324.582031 280.910156 323.914062 273.691406 Z M 321.800781 165.359375 C 319.015625 173.792969 315.605469 181.898438 311.660156 189.648438 C 310.085938 192.753906 308.421875 195.796875 306.683594 198.789062 C 305.847656 200.480469 304.960938 202.171875 304.03125 203.867188 C 305.664062 205.960938 306.636719 208.597656 306.636719 211.460938 C 306.636719 214.480469 305.550781 217.253906 303.753906 219.398438 L 303.800781 219.476562 C 311.855469 232.195312 319.210938 245.78125 325.449219 259.4375 C 326.527344 258.132812 327.617188 257.582031 327.828125 257.488281 C 329.035156 256.863281 329.921875 256.101562 330.5 255.265625 C 331.046875 254.480469 331.335938 253.613281 331.375 252.734375 C 331.421875 251.8125 331.203125 250.851562 330.738281 249.929688 C 330.171875 248.800781 329.234375 247.730469 327.960938 246.84375 C 327.289062 246.382812 326.769531 245.683594 326.550781 244.828125 C 326.0625 242.9375 327.195312 241.011719 329.082031 240.523438 C 334.742188 239.050781 334.980469 235.316406 334.09375 231.914062 C 333.644531 230.191406 332.925781 228.402344 332.316406 226.886719 C 332.03125 226.175781 331.765625 225.519531 331.53125 224.882812 C 328.847656 217.457031 335.578125 214.144531 343.972656 210.007812 C 345.179688 209.414062 346.429688 208.796875 347.707031 208.140625 C 349.914062 207 350.335938 205.523438 349.765625 203.878906 C 348.792969 201.035156 345.984375 197.59375 342.824219 194.101562 C 338.851562 189.707031 333.359375 183.011719 328.792969 176.582031 C 325.96875 172.609375 323.460938 168.683594 321.800781 165.359375 Z M 302.996094 75.117188 C 294.335938 63.875 284.144531 55.652344 273.023438 49.796875 C 255.542969 40.59375 235.6875 37.160156 215.820312 36.972656 C 215.351562 36.96875 214.601562 36.964844 213.644531 36.96875 C 231.289062 41.933594 247.378906 49.246094 261.339844 58.382812 C 263.570312 59.839844 265.75 61.347656 267.875 62.898438 C 269.488281 61.964844 271.363281 61.429688 273.363281 61.429688 C 278.414062 61.429688 282.667969 64.835938 283.960938 69.472656 C 286.214844 69.753906 288.363281 70.132812 290.410156 70.601562 C 295.109375 71.671875 299.285156 73.21875 302.996094 75.117188 Z M 316.992188 98.308594 C 316.585938 97.976562 316.253906 97.550781 316.023438 97.039062 C 315.789062 96.523438 315.550781 96.007812 315.308594 95.496094 C 314.734375 94.613281 314.128906 93.746094 313.476562 92.894531 C 308.203125 85.957031 300.328125 80.121094 288.835938 77.492188 L 288.21875 77.351562 C 286.859375 77.0625 285.453125 76.808594 283.996094 76.605469 C 285.515625 78.105469 286.984375 79.632812 288.410156 81.1875 C 295.304688 88.703125 301.128906 96.824219 305.738281 105.414062 C 312.460938 117.953125 316.578125 131.46875 317.617188 145.519531 C 317.820312 148.257812 317.910156 151.019531 317.875 153.800781 C 318.832031 150.183594 319.671875 146.511719 320.378906 142.78125 C 320.574219 141.757812 320.761719 140.734375 320.9375 139.703125 L 320.980469 139.445312 L 321.019531 139.195312 L 321.226562 137.929688 C 321.246094 137.792969 321.277344 137.660156 321.3125 137.53125 C 321.96875 133.929688 322.589844 131.21875 322.769531 130.4375 C 322.785156 130.367188 322.796875 130.300781 322.8125 130.234375 C 323.023438 129.304688 323.191406 128.160156 323.292969 126.839844 C 323.371094 125.882812 323.410156 124.832031 323.410156 123.699219 C 323.398438 116.730469 321.824219 107.105469 316.992188 98.3125 Z M 168.914062 73.523438 C 173.433594 73.523438 177.328125 76.199219 179.097656 80.054688 C 180.621094 79.941406 182.144531 79.847656 183.660156 79.777344 C 194.375 79.273438 204.878906 79.84375 215.019531 81.335938 C 216.203125 78.566406 218.097656 76.171875 220.46875 74.382812 C 213.351562 62.210938 204.777344 51.953125 195.105469 44.199219 C 192.703125 46.28125 189.566406 47.539062 186.136719 47.539062 C 178.566406 47.539062 172.429688 41.402344 172.429688 33.832031 C 172.429688 26.257812 178.566406 20.121094 186.136719 20.121094 C 192.378906 20.121094 197.644531 24.292969 199.304688 30.003906 C 206.308594 29.921875 213.785156 29.894531 215.875 29.914062 C 236.777344 30.113281 257.738281 33.761719 276.316406 43.542969 C 294.511719 53.121094 310.363281 68.519531 321.570312 92.199219 C 321.9375 92.777344 322.292969 93.359375 322.628906 93.949219 C 328.542969 104.199219 330.453125 115.558594 330.460938 123.699219 C 330.46875 126.964844 330.171875 129.757812 329.699219 131.808594 C 329.683594 131.886719 329.664062 131.957031 329.640625 132.03125 C 329.476562 132.738281 328.871094 135.347656 328.234375 138.757812 C 328.226562 138.851562 328.214844 138.941406 328.199219 139.035156 C 327.949219 140.601562 327.683594 142.152344 327.390625 143.695312 C 326.460938 149.832031 325.882812 156.738281 327.199219 160.152344 C 328.417969 163.316406 331.226562 167.804688 334.550781 172.484375 C 338.988281 178.738281 344.265625 185.179688 348.054688 189.371094 C 351.769531 193.476562 355.113281 197.640625 356.464844 201.578125 C 358.230469 206.71875 357.15625 211.214844 350.949219 214.417969 C 349.660156 215.085938 348.355469 215.726562 347.101562 216.34375 C 341.851562 218.929688 337.640625 221.003906 338.175781 222.472656 C 338.351562 222.957031 338.601562 223.582031 338.875 224.257812 C 339.554688 225.945312 340.359375 227.941406 340.929688 230.144531 C 342.367188 235.664062 342.316406 241.617188 336.171875 245.246094 C 336.5 245.734375 336.792969 246.238281 337.050781 246.75 C 338.066406 248.761719 338.539062 250.925781 338.433594 253.066406 C 338.328125 255.246094 337.632812 257.375 336.3125 259.277344 C 335.0625 261.078125 333.277344 262.65625 330.929688 263.835938 L 330.820312 263.890625 C 330.820312 263.894531 330.144531 264.140625 330.289062 266.972656 C 330.316406 267.425781 330.429688 268.355469 330.566406 269.480469 C 331.625 278.117188 333.894531 296.601562 316.316406 300.804688 C 306.414062 303.171875 299.269531 303.0625 293.621094 302.210938 C 290.488281 301.738281 287.820312 301.035156 285.390625 300.398438 C 284.660156 300.207031 283.960938 300.019531 283.183594 299.828125 C 282.585938 299.847656 281.316406 299.90625 279.570312 300.148438 C 277.667969 300.414062 275.203125 300.898438 272.441406 301.78125 C 265.171875 304.09375 255.828125 309.152344 249.152344 320.199219 C 249.597656 320.550781 250.023438 320.925781 250.429688 321.332031 L 250.441406 321.34375 C 253 323.90625 254.582031 327.441406 254.582031 331.332031 C 254.582031 335.226562 253 338.757812 250.441406 341.320312 L 250.433594 341.328125 L 250.429688 341.335938 C 247.859375 343.898438 244.328125 345.480469 240.4375 345.480469 C 236.542969 345.480469 233.007812 343.898438 230.445312 341.339844 L 230.433594 341.324219 C 227.875 338.765625 226.289062 335.230469 226.289062 331.332031 C 226.289062 330.1875 226.425781 329.074219 226.683594 328.007812 L 178.613281 302.410156 C 178.472656 302.558594 178.332031 302.707031 178.1875 302.851562 L 178.183594 302.859375 L 178.175781 302.867188 C 175.609375 305.425781 172.074219 307.011719 168.1875 307.011719 C 164.289062 307.011719 160.757812 305.425781 158.195312 302.867188 L 158.183594 302.855469 C 155.621094 300.292969 154.039062 296.757812 154.039062 292.863281 C 154.039062 288.964844 155.621094 285.433594 158.183594 282.871094 L 158.195312 282.855469 C 160.757812 280.296875 164.289062 278.714844 168.1875 278.714844 C 171.210938 278.714844 174.019531 279.667969 176.328125 281.300781 C 189.339844 269.390625 201.839844 254.695312 212.390625 238.542969 C 197.679688 219.503906 185.03125 198.296875 176.519531 178.09375 C 174.347656 172.933594 172.441406 167.839844 170.84375 162.863281 C 170.609375 162.875 170.375 162.882812 170.136719 162.882812 C 160.835938 162.882812 153.296875 155.34375 153.296875 146.039062 C 153.296875 136.734375 160.835938 129.195312 170.136719 129.195312 C 172.207031 129.195312 174.195312 129.574219 176.027344 130.257812 C 177.433594 128.359375 178.894531 126.492188 180.398438 124.664062 C 187.960938 115.496094 196.730469 107.265625 205.992188 100.125 C 208.023438 98.5625 210.078125 97.046875 212.152344 95.585938 C 212.976562 95 213.808594 94.425781 214.640625 93.859375 C 214.015625 92.113281 213.667969 90.234375 213.644531 88.273438 C 203.785156 86.851562 193.566406 86.335938 183.140625 86.882812 C 182.050781 86.9375 180.953125 87.007812 179.859375 87.089844 C 178.773438 92.136719 174.285156 95.914062 168.914062 95.914062 C 162.726562 95.914062 157.71875 90.90625 157.71875 84.71875 C 157.71875 78.53125 162.726562 73.519531 168.914062 73.519531 Z M 168.914062 73.523438 " clip-rule="evenodd"/></clipPath><linearGradient x1="-587.405796" gradientTransform="matrix(0.0506529, 0, 0, 0.0506602, 17.478787, 20.12134)" y1="5293.805417" x2="7320.490131" gradientUnits="userSpaceOnUse" y2="1177.901178" id="0657197c4b"><stop stop-opacity="1" stop-color="rgb(25.489807%, 74.508667%, 91.758728%)" offset="0"/><stop stop-opacity="1" stop-color="rgb(25.489807%, 74.508667%, 91.758728%)" offset="0.25"/><stop stop-opacity="1" stop-color="rgb(25.489807%, 74.508667%, 91.758728%)" offset="0.332606"/><stop stop-opacity="1" stop-color="rgb(25.489807%, 74.508667%, 91.758728%)" offset="0.375"/><stop stop-opacity="1" stop-color="rgb(25.489807%, 74.508667%, 91.758728%)" offset="0.4375"/><stop stop-opacity="1" stop-color="rgb(25.486755%, 74.497986%, 91.751099%)" offset="0.453125"/><stop stop-opacity="1" stop-color="rgb(25.431824%, 74.191284%, 91.542053%)" offset="0.457031"/><stop stop-opacity="1" stop-color="rgb(25.378418%, 73.893738%, 91.340637%)" offset="0.460937"/><stop stop-opacity="1" stop-color="rgb(25.325012%, 73.596191%, 91.137695%)" offset="0.464844"/><stop stop-opacity="1" stop-color="rgb(25.271606%, 73.298645%, 90.936279%)" offset="0.46875"/><stop stop-opacity="1" stop-color="rgb(25.218201%, 73.001099%, 90.733337%)" offset="0.472656"/><stop stop-opacity="1" stop-color="rgb(25.164795%, 72.703552%, 90.531921%)" offset="0.476562"/><stop stop-opacity="1" stop-color="rgb(25.109863%, 72.406006%, 90.328979%)" offset="0.480469"/><stop stop-opacity="1" stop-color="rgb(25.056458%, 72.108459%, 90.127563%)" offset="0.484375"/><stop stop-opacity="1" stop-color="rgb(25.003052%, 71.810913%, 89.924622%)" offset="0.488281"/><stop stop-opacity="1" stop-color="rgb(24.949646%, 71.513367%, 89.723206%)" offset="0.492187"/><stop stop-opacity="1" stop-color="rgb(24.89624%, 71.21582%, 89.520264%)" offset="0.496094"/><stop stop-opacity="1" stop-color="rgb(24.842834%, 70.918274%, 89.317322%)" offset="0.5"/><stop stop-opacity="1" stop-color="rgb(24.789429%, 70.620728%, 89.11438%)" offset="0.503906"/><stop stop-opacity="1" stop-color="rgb(24.736023%, 70.323181%, 88.912964%)" offset="0.507812"/><stop stop-opacity="1" stop-color="rgb(24.682617%, 70.025635%, 88.710022%)" offset="0.511719"/><stop stop-opacity="1" stop-color="rgb(24.629211%, 69.728088%, 88.508606%)" offset="0.515625"/><stop stop-opacity="1" stop-color="rgb(24.57428%, 69.430542%, 88.305664%)" offset="0.519531"/><stop stop-opacity="1" stop-color="rgb(24.520874%, 69.132996%, 88.104248%)" offset="0.523438"/><stop stop-opacity="1" stop-color="rgb(24.467468%, 68.835449%, 87.901306%)" offset="0.527344"/><stop stop-opacity="1" stop-color="rgb(24.414062%, 68.537903%, 87.69989%)" offset="0.53125"/><stop stop-opacity="1" stop-color="rgb(24.360657%, 68.240356%, 87.496948%)" offset="0.535156"/><stop stop-opacity="1" stop-color="rgb(24.307251%, 67.94281%, 87.295532%)" offset="0.539062"/><stop stop-opacity="1" stop-color="rgb(24.253845%, 67.645264%, 87.09259%)" offset="0.542969"/><stop stop-opacity="1" stop-color="rgb(24.200439%, 67.347717%, 86.891174%)" offset="0.546875"/><stop stop-opacity="1" stop-color="rgb(24.145508%, 67.050171%, 86.688232%)" offset="0.550781"/><stop stop-opacity="1" stop-color="rgb(24.092102%, 66.752625%, 86.486816%)" offset="0.554687"/><stop stop-opacity="1" stop-color="rgb(24.038696%, 66.455078%, 86.283875%)" offset="0.558594"/><stop stop-opacity="1" stop-color="rgb(23.985291%, 66.157532%, 86.082458%)" offset="0.5625"/><stop stop-opacity="1" stop-color="rgb(23.931885%, 65.859985%, 85.879517%)" offset="0.566406"/><stop stop-opacity="1" stop-color="rgb(23.878479%, 65.562439%, 85.676575%)" offset="0.570312"/><stop stop-opacity="1" stop-color="rgb(23.825073%, 65.264893%, 85.473633%)" offset="0.574219"/><stop stop-opacity="1" stop-color="rgb(23.771667%, 64.967346%, 85.272217%)" offset="0.578125"/><stop stop-opacity="1" stop-color="rgb(23.718262%, 64.6698%, 85.069275%)" offset="0.582031"/><stop stop-opacity="1" stop-color="rgb(23.664856%, 64.372253%, 84.867859%)" offset="0.585937"/><stop stop-opacity="1" stop-color="rgb(23.609924%, 64.074707%, 84.664917%)" offset="0.589844"/><stop stop-opacity="1" stop-color="rgb(23.556519%, 63.777161%, 84.463501%)" offset="0.59375"/><stop stop-opacity="1" stop-color="rgb(23.503113%, 63.478088%, 84.260559%)" offset="0.597656"/><stop stop-opacity="1" stop-color="rgb(23.449707%, 63.180542%, 84.059143%)" offset="0.601562"/><stop stop-opacity="1" stop-color="rgb(23.396301%, 62.882996%, 83.856201%)" offset="0.605469"/><stop stop-opacity="1" stop-color="rgb(23.342896%, 62.585449%, 83.654785%)" offset="0.609375"/><stop stop-opacity="1" stop-color="rgb(23.28949%, 62.287903%, 83.451843%)" offset="0.613281"/><stop stop-opacity="1" stop-color="rgb(23.236084%, 61.990356%, 83.250427%)" offset="0.617187"/><stop stop-opacity="1" stop-color="rgb(23.182678%, 61.69281%, 83.047485%)" offset="0.621094"/><stop stop-opacity="1" stop-color="rgb(23.129272%, 61.395264%, 82.846069%)" offset="0.625"/><stop stop-opacity="1" stop-color="rgb(23.074341%, 61.097717%, 82.643127%)" offset="0.628906"/><stop stop-opacity="1" stop-color="rgb(23.020935%, 60.800171%, 82.440186%)" offset="0.632812"/><stop stop-opacity="1" stop-color="rgb(22.967529%, 60.502625%, 82.237244%)" offset="0.636719"/><stop stop-opacity="1" stop-color="rgb(22.914124%, 60.205078%, 82.035828%)" offset="0.640625"/><stop stop-opacity="1" stop-color="rgb(22.860718%, 59.907532%, 81.832886%)" offset="0.644531"/><stop stop-opacity="1" stop-color="rgb(22.807312%, 59.609985%, 81.63147%)" offset="0.648437"/><stop stop-opacity="1" stop-color="rgb(22.753906%, 59.312439%, 81.428528%)" offset="0.652344"/><stop stop-opacity="1" stop-color="rgb(22.7005%, 59.014893%, 81.227112%)" offset="0.65625"/><stop stop-opacity="1" stop-color="rgb(22.647095%, 58.717346%, 81.02417%)" offset="0.660156"/><stop stop-opacity="1" stop-color="rgb(22.593689%, 58.4198%, 80.822754%)" offset="0.664062"/><stop stop-opacity="1" stop-color="rgb(22.538757%, 58.122253%, 80.619812%)" offset="0.667969"/><stop stop-opacity="1" stop-color="rgb(22.485352%, 57.824707%, 80.418396%)" offset="0.671875"/><stop stop-opacity="1" stop-color="rgb(22.431946%, 57.527161%, 80.215454%)" offset="0.675781"/><stop stop-opacity="1" stop-color="rgb(22.37854%, 57.229614%, 80.014038%)" offset="0.679687"/><stop stop-opacity="1" stop-color="rgb(22.325134%, 56.932068%, 79.811096%)" offset="0.683594"/><stop stop-opacity="1" stop-color="rgb(22.271729%, 56.634521%, 79.60968%)" offset="0.6875"/><stop stop-opacity="1" stop-color="rgb(22.218323%, 56.336975%, 79.406738%)" offset="0.691406"/><stop stop-opacity="1" stop-color="rgb(22.164917%, 56.039429%, 79.205322%)" offset="0.695312"/><stop stop-opacity="1" stop-color="rgb(22.111511%, 55.741882%, 79.00238%)" offset="0.699219"/><stop stop-opacity="1" stop-color="rgb(22.058105%, 55.444336%, 78.799438%)" offset="0.703125"/><stop stop-opacity="1" stop-color="rgb(21.998596%, 55.119324%, 78.579712%)" offset="0.707031"/><stop stop-opacity="1" stop-color="rgb(21.939087%, 54.795837%, 78.359985%)" offset="0.710937"/><stop stop-opacity="1" stop-color="rgb(21.817017%, 54.176331%, 77.947998%)" offset="0.714844"/><stop stop-opacity="1" stop-color="rgb(21.696472%, 53.55835%, 77.536011%)" offset="0.71875"/><stop stop-opacity="1" stop-color="rgb(21.574402%, 52.938843%, 77.122498%)" offset="0.722656"/><stop stop-opacity="1" stop-color="rgb(21.453857%, 52.320862%, 76.71051%)" offset="0.726562"/><stop stop-opacity="1" stop-color="rgb(21.331787%, 51.701355%, 76.296997%)" offset="0.730469"/><stop stop-opacity="1" stop-color="rgb(21.211243%, 51.081848%, 75.88501%)" offset="0.734375"/><stop stop-opacity="1" stop-color="rgb(21.089172%, 50.462341%, 75.471497%)" offset="0.738281"/><stop stop-opacity="1" stop-color="rgb(20.968628%, 49.84436%, 75.059509%)" offset="0.742187"/><stop stop-opacity="1" stop-color="rgb(20.846558%, 49.224854%, 74.647522%)" offset="0.746094"/><stop stop-opacity="1" stop-color="rgb(20.726013%, 48.606873%, 74.235535%)" offset="0.75"/><stop stop-opacity="1" stop-color="rgb(20.603943%, 47.987366%, 73.822021%)" offset="0.753906"/><stop stop-opacity="1" stop-color="rgb(20.483398%, 47.367859%, 73.410034%)" offset="0.757812"/><stop stop-opacity="1" stop-color="rgb(20.361328%, 46.748352%, 72.996521%)" offset="0.761719"/><stop stop-opacity="1" stop-color="rgb(20.240784%, 46.130371%, 72.584534%)" offset="0.765625"/><stop stop-opacity="1" stop-color="rgb(20.118713%, 45.510864%, 72.172546%)" offset="0.769531"/><stop stop-opacity="1" stop-color="rgb(19.998169%, 44.892883%, 71.760559%)" offset="0.773437"/><stop stop-opacity="1" stop-color="rgb(19.876099%, 44.273376%, 71.347046%)" offset="0.777344"/><stop stop-opacity="1" stop-color="rgb(19.755554%, 43.655396%, 70.935059%)" offset="0.78125"/><stop stop-opacity="1" stop-color="rgb(19.633484%, 43.035889%, 70.521545%)" offset="0.785156"/><stop stop-opacity="1" stop-color="rgb(19.512939%, 42.416382%, 70.109558%)" offset="0.789062"/><stop stop-opacity="1" stop-color="rgb(19.390869%, 41.796875%, 69.696045%)" offset="0.792969"/><stop stop-opacity="1" stop-color="rgb(19.270325%, 41.178894%, 69.284058%)" offset="0.796875"/><stop stop-opacity="1" stop-color="rgb(19.148254%, 40.559387%, 68.87207%)" offset="0.800781"/><stop stop-opacity="1" stop-color="rgb(19.02771%, 39.941406%, 68.460083%)" offset="0.804687"/><stop stop-opacity="1" stop-color="rgb(18.90564%, 39.321899%, 68.04657%)" offset="0.808594"/><stop stop-opacity="1" stop-color="rgb(18.785095%, 38.703918%, 67.634583%)" offset="0.8125"/><stop stop-opacity="1" stop-color="rgb(18.663025%, 38.084412%, 67.221069%)" offset="0.816406"/><stop stop-opacity="1" stop-color="rgb(18.54248%, 37.464905%, 66.809082%)" offset="0.820312"/><stop stop-opacity="1" stop-color="rgb(18.42041%, 36.845398%, 66.397095%)" offset="0.824219"/><stop stop-opacity="1" stop-color="rgb(18.299866%, 36.227417%, 65.985107%)" offset="0.828125"/><stop stop-opacity="1" stop-color="rgb(18.177795%, 35.60791%, 65.571594%)" offset="0.832031"/><stop stop-opacity="1" stop-color="rgb(18.057251%, 34.989929%, 65.159607%)" offset="0.835937"/><stop stop-opacity="1" stop-color="rgb(18.048096%, 34.944153%, 65.129089%)" offset="0.84375"/><stop stop-opacity="1" stop-color="rgb(18.03894%, 34.899902%, 65.098572%)" offset="0.875"/><stop stop-opacity="1" stop-color="rgb(18.03894%, 34.899902%, 65.098572%)" offset="1"/></linearGradient></defs><g clip-path="url(#5c0e0bf676)"><g clip-path="url(#da8bc7afad)"><path fill="url(#0657197c4b)" d="M 17.480469 20.121094 L 17.480469 345.480469 L 357.230469 345.480469 L 357.230469 20.121094 Z M 17.480469 20.121094 " fill-rule="nonzero"/></g></g></svg>